<?xml version="1.0" encoding="UTF-8" standalone="no"?>
<!-- Generator: Adobe Illustrator 15.1.0, SVG Export Plug-In . SVG Version: 6.00 Build 0)  -->

<svg
   xmlns:dc="http://purl.org/dc/elements/1.1/"
   xmlns:cc="http://creativecommons.org/ns#"
   xmlns:rdf="http://www.w3.org/1999/02/22-rdf-syntax-ns#"
   xmlns:svg="http://www.w3.org/2000/svg"
   xmlns="http://www.w3.org/2000/svg"
   xmlns:xlink="http://www.w3.org/1999/xlink"
   xmlns:sodipodi="http://sodipodi.sourceforge.net/DTD/sodipodi-0.dtd"
   xmlns:inkscape="http://www.inkscape.org/namespaces/inkscape"
   version="1.0"
   id="Layer_1"
   x="0px"
   y="0px"
   width="64"
   height="64"
   viewBox="0 0 63.999996 63.999999"
   enable-background="new 0 0 595.28 841.89"
   xml:space="preserve"
   inkscape:version="0.91 r13725"
   sodipodi:docname="logoIcon.svg"><metadata
     id="metadata75"><rdf:RDF><cc:Work
         rdf:about=""><dc:format>image/svg+xml</dc:format><dc:type
           rdf:resource="http://purl.org/dc/dcmitype/StillImage" /><dc:title></dc:title></cc:Work></rdf:RDF></metadata><defs
     id="defs73"><defs
       id="defs43"><rect
         height="38.557999"
         width="149.55099"
         y="401.44199"
         x="223"
         id="SVGID_3_" /></defs><defs
       id="defs61"><rect
         height="38.557999"
         width="149.55099"
         y="401.44199"
         x="223"
         id="SVGID_5_" /></defs><clipPath
       id="SVGID_6_-3"><use
         height="100%"
         width="100%"
         y="0"
         x="0"
         style="overflow:visible"
         id="use65-6"
         overflow="visible"
         xlink:href="#SVGID_5_" /></clipPath><clipPath
       id="SVGID_4_-7"><use
         height="100%"
         width="100%"
         y="0"
         x="0"
         style="overflow:visible"
         id="use47-5"
         overflow="visible"
         xlink:href="#SVGID_3_" /></clipPath></defs><sodipodi:namedview
     pagecolor="#ffffff"
     bordercolor="#666666"
     borderopacity="1"
     objecttolerance="10"
     gridtolerance="10"
     guidetolerance="10"
     inkscape:pageopacity="0"
     inkscape:pageshadow="2"
     inkscape:window-width="1920"
     inkscape:window-height="1028"
     id="namedview71"
     showgrid="false"
     inkscape:zoom="8.9702929"
     inkscape:cx="20.817644"
     inkscape:cy="27.50017"
     inkscape:window-x="-4"
     inkscape:window-y="-4"
     inkscape:window-maximized="1"
     inkscape:current-layer="Layer_1"
     fit-margin-top="0"
     fit-margin-left="0"
     fit-margin-right="0"
     fit-margin-bottom="0" /><g
     id="g3748"
     transform="translate(5.6447529e-7,-1.0744885)"><path
       clip-path="url(#SVGID_4_-7)"
       d="m 261.798,405.438 -2.895,-2.896 c -0.8,-0.8 -2.096,-0.8 -2.895,0 l -1.448,1.447 5.79,5.791 1.448,-1.448 c 0.799,-0.799 0.799,-2.096 0,-2.894"
       id="path51-3"
       inkscape:connector-curvature="0"
       style="fill:#010202"
       transform="matrix(1.604239,0,0,1.604239,-357.7453,-641.86513)" /><path
       clip-path="url(#SVGID_4_-7)"
       stroke-miterlimit="10"
       d="m 261.798,405.438 -2.895,-2.896 c -0.8,-0.8 -2.096,-0.8 -2.895,0 l -1.448,1.447 5.79,5.791 1.448,-1.448 c 0.799,-0.799 0.799,-2.096 0,-2.894 z"
       id="path53-5"
       inkscape:connector-curvature="0"
       style="fill:none;stroke:#000000;stroke-miterlimit:10"
       transform="matrix(1.604239,0,0,1.604239,-357.7453,-641.86513)" /><polygon
       id="polygon55-6"
       points="240.083,418.467 240.083,424.257 245.874,424.257 258.903,411.228 253.113,405.438 "
       style="fill:#010202"
       transform="matrix(1.604239,0,0,1.604239,-357.7453,-641.86513)" /><polygon
       id="polygon57-2"
       points="240.083,418.467 240.083,424.257 245.874,424.257 258.903,411.228 253.113,405.438 "
       stroke-miterlimit="10"
       style="fill:none;stroke:#000000;stroke-miterlimit:10"
       transform="matrix(1.604239,0,0,1.604239,-357.7453,-641.86513)" /><path
       clip-path="url(#SVGID_6_-3)"
       d="m 254.208,418.817 0,10.367 c 0,0.77 -0.65,1.42 -1.419,1.42 l -25.823,0 c -0.769,0 -1.419,-0.65 -1.419,-1.42 l 0,-17.634 c 0,-0.77 0.65,-1.42 1.419,-1.42 l 18.556,0 2.048,-2.047 -20.604,0 c -1.907,0 -3.467,1.561 -3.467,3.467 l 0,17.634 c 0,1.906 1.56,3.467 3.467,3.467 l 4.928,0 6.142,6.142 0,-6.142 14.753,0 c 1.906,0 3.466,-1.561 3.466,-3.467 l 0,-12.414 -2.047,2.047 z"
       id="path67-9"
       inkscape:connector-curvature="0"
       style="fill:#241f21"
       transform="matrix(1.604239,0,0,1.604239,-357.7453,-641.86513)" /><path
       clip-path="url(#SVGID_6_-3)"
       stroke-miterlimit="10"
       d="m 254.208,418.817 0,10.367 c 0,0.77 -0.65,1.42 -1.419,1.42 l -25.823,0 c -0.769,0 -1.419,-0.65 -1.419,-1.42 l 0,-17.634 c 0,-0.77 0.65,-1.42 1.419,-1.42 l 18.556,0 2.048,-2.047 -20.604,0 c -1.907,0 -3.467,1.561 -3.467,3.467 l 0,17.634 c 0,1.906 1.56,3.467 3.467,3.467 l 4.928,0 6.142,6.142 0,-6.142 14.753,0 c 1.906,0 3.466,-1.561 3.466,-3.467 l 0,-12.414 -2.047,2.047 z"
       id="path69-1"
       inkscape:connector-curvature="0"
       style="fill:none;stroke:#000000;stroke-miterlimit:10"
       transform="matrix(1.604239,0,0,1.604239,-357.7453,-641.86513)" /></g></svg>