<?xml version="1.0" encoding="UTF-8" standalone="no"?>
<!-- Generator: Adobe Illustrator 15.1.0, SVG Export Plug-In . SVG Version: 6.00 Build 0)  -->

<svg
   xmlns:dc="http://purl.org/dc/elements/1.1/"
   xmlns:cc="http://creativecommons.org/ns#"
   xmlns:rdf="http://www.w3.org/1999/02/22-rdf-syntax-ns#"
   xmlns:svg="http://www.w3.org/2000/svg"
   xmlns="http://www.w3.org/2000/svg"
   xmlns:xlink="http://www.w3.org/1999/xlink"
   xmlns:sodipodi="http://sodipodi.sourceforge.net/DTD/sodipodi-0.dtd"
   xmlns:inkscape="http://www.inkscape.org/namespaces/inkscape"
   version="1.0"
   id="Layer_1"
   x="0px"
   y="0px"
   width="149.55099"
   height="38.554749"
   viewBox="0 0 149.55099 38.554748"
   enable-background="new 0 0 595.28 841.89"
   xml:space="preserve"
   inkscape:version="0.91 r13725"
   sodipodi:docname="logo2.svg"><metadata
     id="metadata75"><rdf:RDF><cc:Work
         rdf:about=""><dc:format>image/svg+xml</dc:format><dc:type
           rdf:resource="http://purl.org/dc/dcmitype/StillImage" /><dc:title></dc:title></cc:Work></rdf:RDF></metadata><defs
     id="defs73" /><sodipodi:namedview
     pagecolor="#ffffff"
     bordercolor="#666666"
     borderopacity="1"
     objecttolerance="10"
     gridtolerance="10"
     guidetolerance="10"
     inkscape:pageopacity="0"
     inkscape:pageshadow="2"
     inkscape:window-width="1920"
     inkscape:window-height="1028"
     id="namedview71"
     showgrid="false"
     fit-margin-top="0"
     fit-margin-left="0"
     fit-margin-right="0"
     fit-margin-bottom="0"
     inkscape:zoom="4.4851464"
     inkscape:cx="75.960972"
     inkscape:cy="23.513005"
     inkscape:window-x="-4"
     inkscape:window-y="-4"
     inkscape:window-maximized="1"
     inkscape:current-layer="Layer_1" /><path
     d="m 49.832,23.286766 5.574,0 L 52.584,8.8517655 49.832,23.286766 Z m -0.357,2.395 -0.965,5.038 -2.572,0 4.788,-25.0120005 4.037,0 4.788,25.0120005 -2.787,0 -0.965,-5.038 -6.324,0 z"
     id="path3"
     inkscape:connector-curvature="0" /><path
     stroke-miterlimit="10"
     d="m 49.832,23.286766 5.574,0 L 52.584,8.8517655 49.832,23.286766 Z m -0.357,2.395 -0.965,5.038 -2.572,0 4.788,-25.0120005 4.037,0 4.788,25.0120005 -2.787,0 -0.965,-5.038 -6.324,0 z"
     id="path5"
     inkscape:connector-curvature="0"
     style="fill:none;stroke:#000000;stroke-miterlimit:10" /><polygon
     points="287.796,407.153 293.584,425.233 293.584,407.153 296.05,407.153 296.05,432.165 293.156,432.165 286.76,411.941 286.76,432.165 284.259,432.165 284.259,407.153 "
     id="polygon7"
     transform="translate(-223,-401.44523)" /><polygon
     stroke-miterlimit="10"
     points="287.796,407.153 293.584,425.233 293.584,407.153 296.05,407.153 296.05,432.165 293.156,432.165 286.76,411.941 286.76,432.165 284.259,432.165 284.259,407.153 "
     id="polygon9"
     style="fill:none;stroke:#000000;stroke-miterlimit:10"
     transform="translate(-223,-401.44523)" /><polygon
     points="301.724,407.153 307.513,425.233 307.513,407.153 309.978,407.153 309.978,432.165 307.084,432.165 300.688,411.941 300.688,432.165 298.187,432.165 298.187,407.153 "
     id="polygon11"
     transform="translate(-223,-401.44523)" /><polygon
     stroke-miterlimit="10"
     points="301.724,407.153 307.513,425.233 307.513,407.153 309.978,407.153 309.978,432.165 307.084,432.165 300.688,411.941 300.688,432.165 298.187,432.165 298.187,407.153 "
     id="polygon13"
     style="fill:none;stroke:#000000;stroke-miterlimit:10"
     transform="translate(-223,-401.44523)" /><g
     id="g15"
     transform="translate(-223,-401.44523)"><defs
       id="defs17"><rect
         id="SVGID_1_"
         x="223"
         y="401.44199"
         width="149.55099"
         height="38.557999" /></defs><clipPath
       id="SVGID_2_"><use
         xlink:href="#SVGID_1_"
         overflow="visible"
         id="use21"
         style="overflow:visible"
         x="0"
         y="0"
         width="100%"
         height="100%" /></clipPath><path
       clip-path="url(#SVGID_2_)"
       d="m 314.736,426.269 c 0,1.145 0.244,2.032 0.733,2.663 0.487,0.631 1.231,0.946 2.233,0.946 1.023,0 1.773,-0.315 2.25,-0.946 0.477,-0.631 0.715,-1.519 0.715,-2.663 l 0,-13.22 c 0,-1.143 -0.238,-2.03 -0.715,-2.662 -0.477,-0.631 -1.227,-0.947 -2.25,-0.947 -1.002,0 -1.746,0.316 -2.233,0.947 -0.489,0.632 -0.733,1.52 -0.733,2.662 l 0,13.22 z m -2.751,-13.078 c 0,-1.929 0.47,-3.46 1.411,-4.591 0.941,-1.132 2.377,-1.698 4.307,-1.698 1.928,0 3.369,0.566 4.322,1.698 0.953,1.131 1.43,2.662 1.43,4.591 l 0,12.935 c 0,1.907 -0.477,3.431 -1.43,4.574 -0.953,1.143 -2.395,1.715 -4.322,1.715 -1.93,0 -3.365,-0.571 -4.307,-1.715 -0.942,-1.144 -1.411,-2.667 -1.411,-4.574 l 0,-12.935 z"
       id="path23"
       inkscape:connector-curvature="0" /><path
       clip-path="url(#SVGID_2_)"
       stroke-miterlimit="10"
       d="m 314.736,426.269 c 0,1.145 0.244,2.032 0.733,2.663 0.487,0.631 1.231,0.946 2.233,0.946 1.023,0 1.773,-0.315 2.25,-0.946 0.477,-0.631 0.715,-1.519 0.715,-2.663 l 0,-13.22 c 0,-1.143 -0.238,-2.03 -0.715,-2.662 -0.477,-0.631 -1.227,-0.947 -2.25,-0.947 -1.002,0 -1.746,0.316 -2.233,0.947 -0.489,0.632 -0.733,1.52 -0.733,2.662 l 0,13.22 z m -2.751,-13.078 c 0,-1.929 0.47,-3.46 1.411,-4.591 0.941,-1.132 2.377,-1.698 4.307,-1.698 1.928,0 3.369,0.566 4.322,1.698 0.953,1.131 1.43,2.662 1.43,4.591 l 0,12.935 c 0,1.907 -0.477,3.431 -1.43,4.574 -0.953,1.143 -2.395,1.715 -4.322,1.715 -1.93,0 -3.365,-0.571 -4.307,-1.715 -0.942,-1.144 -1.411,-2.667 -1.411,-4.574 l 0,-12.935 z"
       id="path25"
       inkscape:connector-curvature="0"
       style="fill:none;stroke:#000000;stroke-miterlimit:10" /></g><polygon
     points="324.685,407.153 336.654,407.153 336.654,409.69 332.045,409.69 332.045,432.165 329.293,432.165 329.293,409.69 324.685,409.69 "
     id="polygon27"
     transform="translate(-223,-401.44523)" /><polygon
     stroke-miterlimit="10"
     points="324.685,407.153 336.654,407.153 336.654,409.69 332.045,409.69 332.045,432.165 329.293,432.165 329.293,409.69 324.685,409.69 "
     id="polygon29"
     style="fill:none;stroke:#000000;stroke-miterlimit:10"
     transform="translate(-223,-401.44523)" /><path
     d="m 116.523,23.286766 5.572,0 -2.822,-14.4350005 -2.75,14.4350005 z m -0.358,2.395 -0.965,5.038 -2.572,0 4.788,-25.0120005 4.037,0 4.788,25.0120005 -2.787,0 -0.964,-5.038 -6.325,0 z"
     id="path31"
     inkscape:connector-curvature="0" /><path
     stroke-miterlimit="10"
     d="m 116.523,23.286766 5.572,0 -2.822,-14.4350005 -2.75,14.4350005 z m -0.358,2.395 -0.965,5.038 -2.572,0 4.788,-25.0120005 4.037,0 4.788,25.0120005 -2.787,0 -0.964,-5.038 -6.325,0 z"
     id="path33"
     inkscape:connector-curvature="0"
     style="fill:none;stroke:#000000;stroke-miterlimit:10" /><polygon
     points="348.216,407.153 360.186,407.153 360.186,409.69 355.576,409.69 355.576,432.165 352.825,432.165 352.825,409.69 348.216,409.69 "
     id="polygon35"
     transform="translate(-223,-401.44523)" /><polygon
     stroke-miterlimit="10"
     points="348.216,407.153 360.186,407.153 360.186,409.69 355.576,409.69 355.576,432.165 352.825,432.165 352.825,409.69 348.216,409.69 "
     id="polygon37"
     style="fill:none;stroke:#000000;stroke-miterlimit:10"
     transform="translate(-223,-401.44523)" /><polygon
     points="364.548,429.628 372.051,429.628 372.051,432.165 361.761,432.165 361.761,407.153 372.051,407.153 372.051,409.689 364.548,409.689 364.548,418.229 370.658,418.229 370.658,420.73 364.548,420.73 "
     id="polygon39"
     transform="translate(-223,-401.44523)" /><g
     id="g41"
     transform="translate(-223,-401.44523)"><defs
       id="defs43"><rect
         id="SVGID_3_"
         x="223"
         y="401.44199"
         width="149.55099"
         height="38.557999" /></defs><clipPath
       id="SVGID_4_"><use
         xlink:href="#SVGID_3_"
         overflow="visible"
         id="use47"
         style="overflow:visible"
         x="0"
         y="0"
         width="100%"
         height="100%" /></clipPath><polygon
       clip-path="url(#SVGID_4_)"
       stroke-miterlimit="10"
       points="364.548,429.628 372.051,429.628 372.051,432.165 361.761,432.165 361.761,407.153 372.051,407.153 372.051,409.689 364.548,409.689 364.548,418.229 370.658,418.229 370.658,420.73 364.548,420.73 "
       id="polygon49"
       style="fill:none;stroke:#000000;stroke-miterlimit:10" /><path
       clip-path="url(#SVGID_4_)"
       d="m 261.798,405.438 -2.895,-2.896 c -0.8,-0.8 -2.096,-0.8 -2.895,0 l -1.448,1.447 5.79,5.791 1.448,-1.448 c 0.799,-0.799 0.799,-2.096 0,-2.894"
       id="path51"
       inkscape:connector-curvature="0"
       style="fill:#010202" /><path
       clip-path="url(#SVGID_4_)"
       stroke-miterlimit="10"
       d="m 261.798,405.438 -2.895,-2.896 c -0.8,-0.8 -2.096,-0.8 -2.895,0 l -1.448,1.447 5.79,5.791 1.448,-1.448 c 0.799,-0.799 0.799,-2.096 0,-2.894 z"
       id="path53"
       inkscape:connector-curvature="0"
       style="fill:none;stroke:#000000;stroke-miterlimit:10" /></g><polygon
     points="253.113,405.438 240.083,418.467 240.083,424.257 245.874,424.257 258.903,411.228 "
     id="polygon55"
     style="fill:#010202"
     transform="translate(-223,-401.44523)" /><polygon
     stroke-miterlimit="10"
     points="253.113,405.438 240.083,418.467 240.083,424.257 245.874,424.257 258.903,411.228 "
     id="polygon57"
     style="fill:none;stroke:#000000;stroke-miterlimit:10"
     transform="translate(-223,-401.44523)" /><g
     id="g59"
     transform="translate(-223,-401.44523)"><defs
       id="defs61"><rect
         id="SVGID_5_"
         x="223"
         y="401.44199"
         width="149.55099"
         height="38.557999" /></defs><clipPath
       id="SVGID_6_"><use
         xlink:href="#SVGID_5_"
         overflow="visible"
         id="use65"
         style="overflow:visible"
         x="0"
         y="0"
         width="100%"
         height="100%" /></clipPath><path
       clip-path="url(#SVGID_6_)"
       d="m 254.208,418.817 0,10.367 c 0,0.77 -0.65,1.42 -1.419,1.42 l -25.823,0 c -0.769,0 -1.419,-0.65 -1.419,-1.42 l 0,-17.634 c 0,-0.77 0.65,-1.42 1.419,-1.42 l 18.556,0 2.048,-2.047 -20.604,0 c -1.907,0 -3.467,1.561 -3.467,3.467 l 0,17.634 c 0,1.906 1.56,3.467 3.467,3.467 l 4.928,0 6.142,6.142 0,-6.142 14.753,0 c 1.906,0 3.466,-1.561 3.466,-3.467 l 0,-12.414 -2.047,2.047 z"
       id="path67"
       inkscape:connector-curvature="0"
       style="fill:#241f21" /><path
       clip-path="url(#SVGID_6_)"
       stroke-miterlimit="10"
       d="m 254.208,418.817 0,10.367 c 0,0.77 -0.65,1.42 -1.419,1.42 l -25.823,0 c -0.769,0 -1.419,-0.65 -1.419,-1.42 l 0,-17.634 c 0,-0.77 0.65,-1.42 1.419,-1.42 l 18.556,0 2.048,-2.047 -20.604,0 c -1.907,0 -3.467,1.561 -3.467,3.467 l 0,17.634 c 0,1.906 1.56,3.467 3.467,3.467 l 4.928,0 6.142,6.142 0,-6.142 14.753,0 c 1.906,0 3.466,-1.561 3.466,-3.467 l 0,-12.414 -2.047,2.047 z"
       id="path69"
       inkscape:connector-curvature="0"
       style="fill:none;stroke:#000000;stroke-miterlimit:10" /></g></svg>